HIERARCHY
ROOT Hips
{
	OFFSET 0.00000 0.00000 0.00000
	CHANNELS 6 Xposition Yposition Zposition Zrotation Yrotation Xrotation 
	JOINT LHipJoint
	{
		OFFSET 0 0 0
		CHANNELS 3 Zrotation Yrotation Xrotation
		JOINT LeftHip
		{
			OFFSET 1.58895 -1.83665 0.71753
			CHANNELS 3 Zrotation Yrotation Xrotation
			JOINT LeftKnee
			{
				OFFSET 2.50528 -6.88321 0.00000
				CHANNELS 3 Zrotation Yrotation Xrotation
				JOINT LeftAnkle
				{
					OFFSET 2.63244 -7.23257 0.00000
					CHANNELS 3 Zrotation Yrotation Xrotation
					JOINT LeftToe
					{
						OFFSET 0.23691 -0.65090 1.72750
						CHANNELS 3 Zrotation Yrotation Xrotation
						End Site
						{
							OFFSET 0.00000 -0.00000 0.92561
						}
					}
				}
			}
		}
	}
	JOINT RHipJoint
	{
		OFFSET 0 0 0
		CHANNELS 3 Zrotation Yrotation Xrotation
		JOINT RightHip
		{
			OFFSET -1.51435 -1.83665 0.71753
			CHANNELS 3 Zrotation Yrotation Xrotation
			JOINT RightKnee
			{
				OFFSET -2.54551 -6.99375 0.00000
				CHANNELS 3 Zrotation Yrotation Xrotation
				JOINT RightAnkle
				{
					OFFSET -2.66027 -7.30903 0.00000
					CHANNELS 3 Zrotation Yrotation Xrotation
					JOINT RightToe
					{
						OFFSET -0.22981 -0.63138 2.03959
						CHANNELS 3 Zrotation Yrotation Xrotation
						End Site
						{
							OFFSET -0.00000 -0.00000 1.07060
						}
					}
				}
			}
		}
	}
	JOINT lowerback
	{
		OFFSET 0 0 0
		CHANNELS 3 Zrotation Yrotation Xrotation
		JOINT Chest
		{
			OFFSET -0.02651 1.86275 -0.11152
			CHANNELS 3 Zrotation Yrotation Xrotation
			JOINT Chest2
			{
				OFFSET 0.01019 1.86224 0.04087
				CHANNELS 3 Zrotation Yrotation Xrotation
				JOINT lowerneck
				{
					OFFSET 0 0 0
					CHANNELS 3 Zrotation Yrotation Xrotation
					JOINT Neck
					{
						OFFSET -0.01926 1.80512 0.08867
						CHANNELS 3 Zrotation Yrotation Xrotation
						JOINT Head
						{
							OFFSET 0.05516 1.76451 -0.38475
							CHANNELS 3 Zrotation Yrotation Xrotation
							End Site
							{
								OFFSET 0.01592 1.82587 -0.14001
							}
						}
					}
				}
				JOINT LeftCollar
				{
					OFFSET 0 0 0
					CHANNELS 3 Zrotation Yrotation Xrotation
					JOINT LeftShoulder
					{
						OFFSET 3.47116 1.51376 0.14491
CHANNELS 3 Zrotation Xrotation Yrotation
						JOINT LeftElbow
						{
OFFSET 0 -4.780950 0.000000
CHANNELS 3 Zrotation Xrotation Yrotation
							JOINT LeftWrist
							{
OFFSET 0 -3.586150 -0.000000
CHANNELS 3 Zrotation Xrotation Yrotation
								JOINT lhand
								{
									OFFSET 0 0 0
CHANNELS 3 Zrotation Xrotation Yrotation
									JOINT LFingers
									{
OFFSET 0 -0.659810 0.000000
CHANNELS 3 Zrotation Xrotation Yrotation
										End Site
										{
OFFSET 0 -0.531960 0.000000
										}
									}
								}
								JOINT LThumb
								{
OFFSET 0 0.000000 0.000000
CHANNELS 3 Zrotation Xrotation Yrotation
									End Site
									{
OFFSET 0 -0.540080 0.540080
									}
								}
							}
						}
					}
				}
				JOINT RightCollar
				{
					OFFSET 0 0 0
					CHANNELS 3 Zrotation Yrotation Xrotation
					JOINT RightShoulder
					{
						OFFSET -3.31725 1.61216 0.35156
CHANNELS 3 Zrotation Xrotation Yrotation
						JOINT RightElbow
						{
OFFSET 0 -4.489130 0.000000
CHANNELS 3 Zrotation Xrotation Yrotation
							JOINT RightWrist
							{
OFFSET 0 -3.705100 0.000000
CHANNELS 3 Zrotation Xrotation Yrotation
								JOINT rhand
								{
									OFFSET 0 0 0
CHANNELS 3 Zrotation Xrotation Yrotation
									JOINT RFingers
									{
OFFSET 0 -0.449140 0.000000
CHANNELS 3 Zrotation Xrotation Yrotation
										End Site
										{
OFFSET 0 -0.362110 0.000000
										}
									}
								}
								JOINT RThumb
								{
OFFSET 0 0.000000 0.000000
CHANNELS 3 Zrotation Xrotation Yrotation
									End Site
									{
OFFSET 0 -0.367630 0.367630
									}
								}
							}
						}
					}
				}
			}
		}
	}
}
MOTION
Frames: 12
Frame Time: 0.008333333333333333
-0.727500 18.719300 5.815900 -0.903500 -1.919900 3.268400 0.000000 0.000000 0.000000 -13.447700 -9.385800 -2.495600 1.125100 6.737400 18.939600 1.521500 6.814700 -26.634900 8.352300 -16.372400 -53.822000 0.000000 0.000000 0.000000 14.806400 0.588400 5.505800 0.000000 -0.000000 0.000000 -0.896300 -3.748400 -19.616900 -0.007800 0.569900 -1.566000 -2.171500 -0.207000 0.228800 0.712500 -0.293500 -1.931100 1.954300 -0.102100 -2.094300 -0.757600 -1.062600 -14.544100 3.539600 -2.239500 23.877000 1.083200 -0.696300 10.049700 0.000000 0.000000 0.000000 -2.834300 10.886800 -25.629400 20.289500 -30.989600 5.679700 4.622600 4.597100 25.475200 0.000000 0.000000 0.000000 -7.125000 0.000000 0.000000 -15.143200 5.165900 -14.235700 0.000000 0.000000 0.000000 -0.127000 14.178600 26.306000 -21.548000 -32.462400 -6.341500 -8.811800 25.552100 29.620700 0.000000 0.000000 0.000000 7.125000 0.000000 -0.000000 24.784900 58.127600 -8.291700
-0.729934 18.720233 5.823503 -0.897625 -1.861578 3.267938 0.000000 0.000000 0.000000 -13.434242 -9.275317 -2.521621 1.124398 6.735528 18.934117 1.503162 6.777215 -26.478440 8.369592 -16.384461 -53.883073 0.000000 0.000000 0.000000 14.805693 0.518641 5.526870 0.000000 0.000000 0.000000 -0.900967 -3.707891 -19.638369 -0.006500 0.519187 -1.426597 -2.177270 -0.231107 0.165212 0.717825 -0.324243 -1.916974 1.963294 -0.118071 -2.042528 -0.810366 -1.062267 -14.615092 3.556435 -2.231635 23.923968 1.099234 -0.694267 10.080733 0.000000 0.000000 0.000000 -2.845459 10.767941 -25.606699 20.215270 -30.900865 5.641485 4.588758 4.726020 25.535428 0.000000 0.000000 0.000000 -7.125000 0.000000 0.000000 -15.163272 5.110606 -14.272403 0.000000 0.000000 0.000000 -0.145987 14.113598 26.337234 -21.538669 -32.451703 -6.336501 -8.828321 25.555407 29.525016 0.000000 0.000000 0.000000 7.125000 0.000000 0.000000 24.694707 58.045085 -8.209261
-0.731668 18.719699 5.829638 -0.866465 -1.812496 3.288424 0.000000 0.000000 0.000000 -13.477289 -9.403414 -2.472176 1.121733 6.727798 18.911327 1.501574 6.849024 -26.512242 8.349115 -16.370120 -53.810567 0.000000 0.000000 0.000000 14.776599 0.464428 5.522053 0.000000 0.000000 0.000000 -0.900965 -3.703778 -19.636425 -0.007235 0.548342 -1.506706 -2.182736 -0.242972 0.119667 0.687131 -0.339907 -1.952145 1.934999 -0.125670 -2.052360 -0.785327 -1.065471 -14.538454 3.540136 -2.237307 23.900458 1.088548 -0.697605 10.057296 0.000000 0.000000 0.000000 -2.811826 10.770021 -25.669740 20.248748 -30.940837 5.658692 4.469518 4.885893 25.143658 0.000000 0.000000 0.000000 -7.125000 0.000000 0.000000 -15.235443 5.498568 -14.229121 0.000000 0.000000 0.000000 -0.101017 14.137843 26.335897 -21.555890 -32.471461 -6.345779 -8.848659 25.591112 29.478023 0.000000 0.000000 0.000000 7.125000 0.000000 0.000000 24.638292 58.007100 -8.166039
-0.732703 18.720101 5.834706 -0.831631 -1.777382 3.327044 0.000000 0.000000 0.000000 -13.525842 -9.531575 -2.445354 1.121102 6.725905 18.905714 1.507901 6.916553 -26.600677 8.355610 -16.374707 -53.833735 0.000000 0.000000 0.000000 14.739644 0.431091 5.494667 0.000000 0.000000 0.000000 -0.903201 -3.688686 -19.649306 -0.007998 0.577914 -1.588063 -2.185785 -0.248501 0.059224 0.654808 -0.347000 -2.007760 1.903399 -0.128699 -2.075419 -0.743520 -1.072406 -14.393995 3.491710 -2.243306 23.858724 1.063707 -0.704304 10.013589 0.000000 0.000000 0.000000 -2.787226 10.855770 -25.820778 20.488473 -31.226405 5.782490 4.105584 5.419110 23.903603 0.000000 0.000000 0.000000 -7.125000 0.000000 0.000000 -15.463309 6.723577 -14.082335 0.000000 0.000000 0.000000 -0.062783 14.203984 26.371791 -21.602346 -32.524652 -6.370725 -9.019984 25.579362 29.604755 0.000000 0.000000 0.000000 7.125000 0.000000 0.000000 24.562836 58.158336 -8.229731
-0.735271 18.720566 5.839542 -0.859227 -1.764518 3.358837 0.000000 0.000000 0.000000 -13.477711 -9.520023 -2.482799 1.122805 6.730882 18.920478 1.509272 6.883030 -26.589485 8.359118 -16.377122 -53.846110 0.000000 0.000000 0.000000 14.778920 0.424425 5.472012 0.000000 0.000000 0.000000 -0.903228 -3.686341 -19.648740 -0.006667 0.528078 -1.450966 -2.149686 -0.243194 0.051449 0.648696 -0.339987 -2.088096 1.877061 -0.124140 -2.154182 -0.764963 -1.080196 -14.295127 3.516658 -2.256933 23.907966 1.075015 -0.710188 10.013175 0.000000 0.000000 0.000000 -2.788705 10.960015 -25.877029 20.598644 -31.356852 5.839656 3.898848 5.747823 23.103340 0.000000 0.000000 0.000000 -7.125000 0.000000 0.000000 -15.600583 7.510282 -13.969406 0.000000 0.000000 0.000000 -0.028842 14.322888 26.342543 -21.637385 -32.564792 -6.389594 -8.936209 25.551028 29.741258 0.000000 0.000000 0.000000 7.125000 0.000000 0.000000 24.752821 58.263021 -8.362024
-0.737470 18.720500 5.844610 -0.876229 -1.754712 3.370134 0.000000 0.000000 0.000000 -13.450464 -9.531552 -2.487680 1.126007 6.740153 18.947825 1.513075 6.861423 -26.603368 8.354601 -16.373934 -53.829969 0.000000 0.000000 0.000000 14.807176 0.414670 5.470654 0.000000 0.000000 0.000000 -0.903641 -3.683304 -19.650674 -0.006666 0.527048 -1.448148 -2.007701 -0.207199 0.302401 0.565643 -0.298384 -2.325686 1.713300 -0.100368 -2.542859 -0.771382 -1.112598 -14.102329 3.588210 -2.325938 24.080897 1.094320 -0.734574 10.041131 0.000000 0.000000 0.000000 -2.676049 11.312283 -25.947181 20.630478 -31.394425 5.856274 3.844890 5.800424 22.943062 0.000000 0.000000 0.000000 -7.125000 0.000000 0.000000 -15.636346 7.668577 -13.953752 0.000000 0.000000 0.000000 0.112592 14.688924 26.256470 -21.668398 -32.600274 -6.406268 -8.759307 25.516438 29.920819 0.000000 0.000000 0.000000 7.125000 0.000000 0.000000 25.071530 58.385785 -8.553753
-0.739302 18.720197 5.847908 -0.878401 -1.740913 3.349687 0.000000 0.000000 0.000000 -13.438287 -9.480922 -2.482796 1.128300 6.746898 18.967596 1.514195 6.787224 -26.564553 8.353507 -16.373235 -53.826269 0.000000 0.000000 0.000000 14.817426 0.392579 5.496943 0.000000 0.000000 0.000000 -0.904184 -3.671194 -19.649196 -0.006905 0.536893 -1.475131 -1.905496 -0.178804 0.529577 0.488520 -0.266202 -2.508492 1.577762 -0.082304 -2.861378 -0.738890 -1.140578 -13.908884 3.615621 -2.384650 24.188707 1.092278 -0.756488 10.044258 0.000000 0.000000 0.000000 -2.559304 11.583832 -25.813553 20.611893 -31.372555 5.846592 3.548392 6.385167 23.347625 0.000000 0.000000 0.000000 -7.125000 0.000000 0.000000 -15.808828 7.300784 -14.238945 0.000000 0.000000 0.000000 0.226984 14.968838 26.252891 -21.688354 -32.623062 -6.417029 -8.844914 25.487055 29.994546 0.000000 0.000000 0.000000 7.125000 0.000000 0.000000 25.043083 58.470641 -8.595012
-0.740337 18.718795 5.851614 -0.913728 -1.755761 3.304839 0.000000 0.000000 0.000000 -13.401127 -9.414950 -2.435814 1.127829 6.745355 18.963164 1.510206 6.748494 -26.511966 8.324284 -16.352688 -53.722542 0.000000 0.000000 0.000000 14.862218 0.392976 5.557407 0.000000 0.000000 0.000000 -0.900177 -3.693702 -19.623327 -0.008129 0.580741 -1.595830 -1.869879 -0.178144 0.518653 0.495040 -0.264101 -2.504820 1.564308 -0.082152 -2.851528 -0.729729 -1.134574 -13.832764 3.569171 -2.366497 24.199569 1.077034 -0.753474 10.032238 0.000000 0.000000 0.000000 -2.572809 11.566165 -25.641420 20.558564 -31.309449 5.818818 3.373610 6.783351 23.583141 0.000000 0.000000 0.000000 -7.125000 0.000000 0.000000 -15.910050 7.086934 -14.407163 0.000000 0.000000 0.000000 0.222402 14.984922 26.279358 -21.708950 -32.646557 -6.428127 -8.990770 25.574713 29.888989 0.000000 0.000000 0.000000 7.125000 0.000000 0.000000 24.812754 58.407822 -8.471501
-0.741940 18.717329 5.855476 -0.915543 -1.795486 3.276053 0.000000 0.000000 0.000000 -13.405441 -9.375205 -2.398160 1.127033 6.743099 18.956530 1.499594 6.823651 -26.482116 8.344050 -16.366538 -53.792664 0.000000 0.000000 0.000000 14.870627 0.419725 5.607163 0.000000 0.000000 0.000000 -0.903980 -3.682432 -19.653801 -0.006997 0.539003 -1.481132 -1.877042 -0.166448 0.507210 0.491469 -0.248667 -2.512365 1.564228 -0.074264 -2.853557 -0.693641 -1.143685 -13.777956 3.466381 -2.362279 24.223040 1.035570 -0.760437 10.028134 0.000000 0.000000 0.000000 -2.621966 11.596633 -25.847337 20.606206 -31.365843 5.843607 3.742628 6.055502 23.179330 0.000000 0.000000 0.000000 -7.125000 0.000000 0.000000 -15.694067 7.448598 -14.080059 0.000000 0.000000 0.000000 0.225954 15.015473 26.267632 -21.726627 -32.666635 -6.437666 -9.102090 25.685896 29.853017 0.000000 0.000000 0.000000 7.125000 0.000000 0.000000 24.672093 58.399881 -8.414711
-0.742601 18.716098 5.857512 -0.917294 -1.821979 3.251198 0.000000 0.000000 0.000000 -13.413448 -9.386751 -2.359054 1.128207 6.746521 18.966659 1.502951 6.846815 -26.520713 8.340217 -16.363941 -53.779205 0.000000 0.000000 0.000000 14.876328 0.437723 5.641189 0.000000 0.000000 0.000000 -0.905502 -3.696743 -19.676239 -0.008011 0.577575 -1.587132 -1.874370 -0.150664 0.512185 0.481236 -0.228044 -2.532869 1.551651 -0.063780 -2.878362 -0.659047 -1.157296 -13.691010 3.395829 -2.371493 24.228880 1.004068 -0.770602 10.012290 0.000000 0.000000 0.000000 -2.643023 11.650249 -25.890185 20.629354 -31.393064 5.855628 3.815778 5.905036 23.029731 0.000000 0.000000 0.000000 -7.125000 0.000000 0.000000 -15.652494 7.587250 -13.995250 0.000000 0.000000 0.000000 0.237024 15.066572 26.235255 -21.745171 -32.687881 -6.447639 -9.065184 25.686361 29.987343 0.000000 0.000000 0.000000 7.125000 0.000000 0.000000 24.814706 58.512637 -8.535483
-0.742969 18.715666 5.860681 -1.000575 -1.872715 3.206017 0.000000 0.000000 0.000000 -13.338527 -9.362731 -2.282844 1.130108 6.752057 18.982738 1.511712 6.853791 -26.588358 8.335087 -16.360298 -53.760897 0.000000 0.000000 0.000000 14.969461 0.476029 5.709818 0.000000 0.000000 0.000000 -0.904580 -3.716009 -19.678308 -0.011488 0.690057 -1.896481 -1.781178 -0.140889 0.489984 0.493348 -0.212289 -2.516362 1.511257 -0.058309 -2.849516 -0.656598 -1.157278 -13.657402 3.387258 -2.370507 24.243309 1.001020 -0.771171 10.010841 0.000000 0.000000 0.000000 -2.648279 11.676070 -25.891367 20.642576 -31.408816 5.862556 3.869738 5.888708 23.018806 0.000000 0.000000 0.000000 -7.125000 0.000000 0.000000 -15.619774 7.593852 -13.961535 0.000000 0.000000 0.000000 0.240073 15.068498 26.220064 -21.763502 -32.708678 -6.457571 -9.042215 25.597927 30.008590 0.000000 0.000000 0.000000 7.125000 0.000000 0.000000 24.854677 58.526691 -8.558854
-0.743165 18.714860 5.863746 -1.059730 -1.936041 3.193005 0.000000 0.000000 0.000000 -13.285625 -9.330327 -2.258006 1.131706 6.756582 18.996111 1.507114 6.950457 -26.616154 8.370218 -16.384915 -53.885382 0.000000 0.000000 0.000000 15.035503 0.535897 5.743003 0.000000 0.000000 0.000000 -0.901594 -3.734680 -19.660201 -0.013260 0.742571 -2.040760 -1.710213 -0.126248 0.416304 0.501318 -0.189577 -2.479651 1.478593 -0.049547 -2.771066 -0.696622 -1.163579 -13.677777 3.423868 -2.378835 24.234681 1.019477 -0.774391 10.012844 0.000000 0.000000 0.000000 -2.643678 11.662545 -25.923251 20.649349 -31.416718 5.866075 3.919490 5.871205 23.110599 0.000000 0.000000 0.000000 -7.125000 0.000000 0.000000 -15.587885 7.501741 -13.959855 0.000000 0.000000 0.000000 0.235958 15.016579 26.185429 -21.766587 -32.712214 -6.459242 -8.910170 25.489810 29.885257 0.000000 0.000000 0.000000 7.125000 0.000000 0.000000 24.891298 58.386880 -8.487716
